<svg width="20" height="17" viewBox="0 0 20 17" fill="none" xmlns="http://www.w3.org/2000/svg">
<path id="Vector" d="M11.7375 2L13.4531 3.875H17.25V15.125H2.25V3.875H6.04688L7.7625 2H11.7375ZM12.5625 0.125H6.9375L5.22188 2H2.25C1.21875 2 0.375 2.84375 0.375 3.875V15.125C0.375 16.1563 1.21875 17 2.25 17H17.25C18.2812 17 19.125 16.1563 19.125 15.125V3.875C19.125 2.84375 18.2812 2 17.25 2H14.2781L12.5625 0.125ZM9.75 6.6875C11.2969 6.6875 12.5625 7.95313 12.5625 9.5C12.5625 11.0469 11.2969 12.3125 9.75 12.3125C8.20312 12.3125 6.9375 11.0469 6.9375 9.5C6.9375 7.95313 8.20312 6.6875 9.75 6.6875ZM9.75 4.8125C7.1625 4.8125 5.0625 6.9125 5.0625 9.5C5.0625 12.0875 7.1625 14.1875 9.75 14.1875C12.3375 14.1875 14.4375 12.0875 14.4375 9.5C14.4375 6.9125 12.3375 4.8125 9.75 4.8125Z" fill="white"/>
</svg>
