<svg width="21" height="20" viewBox="0 0 21 20" fill="none" xmlns="http://www.w3.org/2000/svg">
<path id="Vector" d="M19.4594 6.735L13.7119 6.23625L11.4675 0.951875C11.0637 -0.00999996 9.68624 -0.00999996 9.28249 0.951875L7.03812 6.24812L1.30249 6.735C0.257495 6.81812 -0.170005 8.12437 0.62562 8.81312L4.98374 12.5894L3.67749 18.1944C3.43999 19.2156 4.54437 20.0231 5.44687 19.4769L10.375 16.5081L15.3031 19.4887C16.2056 20.035 17.31 19.2275 17.0725 18.2062L15.7662 12.5894L20.1244 8.81312C20.92 8.12437 20.5044 6.81812 19.4594 6.735ZM10.375 14.2875L5.90999 16.9831L7.09749 11.9006L3.15499 8.48062L8.35624 8.02937L10.375 3.24375L12.4056 8.04125L17.6069 8.4925L13.6644 11.9125L14.8519 16.995L10.375 14.2875Z" fill="white"/>
</svg>
